<?xml version="1.0"?>
<svg width="1920" height="1400" xmlns="http://www.w3.org/2000/svg" xmlns:svg="http://www.w3.org/2000/svg">
 <defs>
  <!-- <style>line, .video, .exercise, .lecture, .milestone {
            stroke: #000000;
            stroke-width: 2;
            fill: #ffffff;
          }
          
          text {
            fill: #000000;
          }
          
          .optional {
          stroke: red;
          }
          </style>  -->
          <g id="milestone" >
    <path d="M40.5,9.92v40H.52V10.52c0-.2,0-.4,0-.6A9.45,9.45,0,0,1,9.91.5H31.09A9.46,9.46,0,0,1,40.5,9.92Z"/>
    <line x1="0.5" y1="12.91" x2="40.52" y2="12.91"/>
    <polyline stroke="#bb0000" points="10.52 42.03 16.59 22.6 21 30.24 25.43 22.6 31.44 42.03"/>
  </g>
 </defs>
 <g class="layer">
  <g class="layer" id="tree">
   <g id="screen1">
    <g id="v00_01">
     <line  x1="262" x2="132" y1="36" y2="80"/>
     <line  x1="262" x2="346" y1="36" y2="100"/>
     <path class="lecture" d="m246,20l32,0c-16,20 16,20 0,40l-32,0c16,-20 -16,-20 0,-40" />
    </g>
    <g id="v01_01">
     <line  x1="132" x2="262" y1="120" y2="164"/>
     <path class="lecture" d="m116,80l32,0c-16,20 16,20 0,40l-32,0c16,-20 -16,-20 0,-40" />
    </g>
    <g id="v01_02">
     <line  x1="346" x2="262" y1="100" y2="164"/>
     <circle class="video" cx="346" cy="100"  r="16"/>
    </g>
    <g id="v02_01">
     <line  x1="262" x2="262" y1="164" y2="228"/>
     <circle class="video" cx="262" cy="164"  r="16"/>
    </g>
    <g id="v02_02">
     <line  x1="262" x2="262" y1="228" y2="292"/>
     <circle class="video" cx="262" cy="228"  r="16"/>
    </g>
    <g id="v02_03">
     <line  x1="262" x2="262" y1="292" y2="356"/>
     <line class="optional" x1="262" x2="585" y1="327" y2="327"/>
     <circle class="video" cx="262" cy="292"  r="16"/>
    </g>
    <g id="v02_04">
     <line  x1="262" x2="262" y1="356" y2="420"/>
     <line class="optional"            x1="262" x2="585" y1="392" y2="392"/>
     <circle class="video" cx="262" cy="356"   r="16"/>
    </g>
    <g id="v02_05">
     <line  x1="262" x2="262" y1="440" y2="500"/>
     <rect class="exercise" height="32"  width="32" x="246" y="410"/>
    </g>
    <g id="v03_01">
     <line  x1="262" x2="262" y1="500" y2="564"/>
     <line class="optional" x1="262" x2="585" y1="500" y2="500"/>
     <circle class="video" cx="262" cy="500"  r="16"/>
    </g>
    <g id="v03_02">
     <line  x1="262" x2="262" y1="564" y2="620"/>
      <line class="optional" x1="262" x2="485" y1="600" y2="600"/>
  <line class="optional" x1="585" x2="485" y1="569" y2="600"/>
  <line class="optional" x1="585" x2="485" y1="629" y2="600"/>

     <circle class="video" cx="262" cy="564"  r="16"/>
    </g>
    <g id="v03_03">
     <line  x1="262" x2="262" y1="640" y2="716"/>
     <rect class="exercise" height="32"  width="32" x="246" y="620"/>
    </g>
    <g id="v04_01">
     <line  x1="262" x2="116" y1="716" y2="780"/>
     <line  x1="262" x2="346" y1="716" y2="810"/>
     <circle class="video" cx="262" cy="716"  r="16"/>
    </g>
    <g id="v04_02">
     <line  x1="116.5" x2="86" y1="782.5" y2="877.50001"/>
     <line  x1="116" x2="262" y1="780" y2="874"/>
     <circle class="video" cx="116" cy="780"   r="16"/>
    </g>
    <g id="v04_03">
     <line  x1="346" x2="262" y1="810" y2="874"/>
     <circle class="video" cx="346" cy="810"  r="16"/>
    </g>
    <g id="v04_04">
     <line  x1="262" x2="326" y1="872" y2="936"/>
     <line x1="262" y1="872" x2="262" y2="990"/>
     <circle class="video" cx="262" cy="872"  r="16"/>
    </g>
    <g id="v04_05">
     <circle class="video" cx="326" cy="938"  r="16"/>
    </g>
    <g id="v04_06">
     <line class="dashed"  x1="86" x2="262" y1="879" y2="990"/>
     <circle class="video" cx="86" cy="879"  r="16"/>
    </g> 
    <g id="v04_07">
      <line  x1="262" x2="262" y1="990" y2="1060"/> 
      <rect class="exercise" height="32"  width="32" x="246" y="990"/>
    </g>
    <g id="v05_01">
      <line  x1="262" x2="262" y1="1060" y2="1140"/> 
      <path class="lecture" d="m246,1060l32,0c-16,20 16,20 0,40l-32,0c16,-20 -16,-20 0,-40" />
    </g>
      <g id="v05_02">
      <line x1=" 262" x2="262" y1="1140" y2="1208" />
      <rect class="exercise" height="32"  width="32" x="246" y="1140"/>
    </g>
    <g id="v05_03">
      <use href="#milestone" class="milestone" x="242" y="1208">        
      </use>
    </g>
    
    <g id="e01_01">
     <circle class="video optional" cx="585" cy="327" r="16"/>
    </g>
    <g id="e01_02">
     <circle class="video optional" cx="585" cy="392"  r="16"/>
    </g>
    <g id="e01_03">
     <circle class="video optional" cx="585" cy="500"  r="16"/>
    </g>
    <g id="e01_04">
     <circle class="video optional" cx="585" cy="569" r="16"/>
    </g>
    <g id="e01_05">
     <circle class="video optional" cx="585" cy="629"  r="16"/>
    </g>
   </g>
  </g>
  <g class="layer" id="info">
   <line class="dashed" fill="none"  stroke="#000000" stroke-width="5" x1="50" x2="475" y1="463.5" y2="463.5"/>
   <line class="dashed" fill="none"  stroke="#000000" stroke-width="5" x1="50" x2="475" y1="679" y2="679"/>
   <line class="dashed" fill="none"  stroke="#000000" stroke-width="5" x1="50" x2="475" y1="1040" y2="1040"/>
   <text fill="#000000" font-family="Serif" font-size="32" font-weight="normal"  stroke="#000000" stroke-width="0" text-anchor="middle" transform="rotate(90, 69.5, 321)" x="69.5" xml:space="preserve" y="332">css and classes</text>
   <text fill="#000000" font-family="Serif" font-size="32" font-weight="normal"  stroke="#000000" stroke-width="0" text-anchor="middle" transform="rotate(90, 69.5, 565.5)" x="69.5" xml:space="preserve" y="576.5">functions</text>
   <text fill="#000000" font-family="Serif" font-size="32" font-weight="normal"  stroke="#000000" stroke-width="0" text-anchor="middle" transform="rotate(90, 69.5, 799)" x="69.5" xml:space="preserve" y="810">events</text>
   <text fill="#000000" font-family="Serif" font-size="32" font-weight="normal" stroke="#000000" stroke-width="0" text-anchor="middle" transform="rotate(90, 69.5, 1185)" x="69.5" xml:space="preserve" y="1195">basic interactivity</text>
  </g>
  
  
  </g>
</svg>