<?xml version="1.0"?>
<svg width="1920" height="4000" viewBox="0 0 1920 4000" xmlns="http://www.w3.org/2000/svg" xmlns:svg="http://www.w3.org/2000/svg">
 <defs>
   <!-- <style>line, .video, .exercise, .lecture, .milestone, polyline, polygon {
            stroke: #000000;
            stroke-width: 2;
            fill: #ffffff;
          }
          
          text {
            fill: #000000;
          }
          
          .optional {
          stroke: red;
          }</style> -->
   <g id="milestone">
    <path d="M40.5,9.92v40H.52V10.52c0-.2,0-.4,0-.6A9.45,9.45,0,0,1,9.91.5H31.09A9.46,9.46,0,0,1,40.5,9.92Z"/>
    <line x1="0.5" y1="12.91" x2="40.52" y2="12.91"/>
    <polyline stroke="#bb0000" points="10.52 42.03 16.59 22.6 21 30.24 25.43 22.6 31.44 42.03"/>
  </g>
 </defs>
 <g class="layer">
   <g class="layer" id="tree">
    <g id="screen1">
     <g id="v00_01">
      <line  x1="262" x2="132" y1="36" y2="80"/>
      <line  x1="262" x2="346" y1="36" y2="100"/>
      <path class="lecture" d="m246,20l32,0c-16,20 16,20 0,40l-32,0c16,-20 -16,-20 0,-40z" />
     </g>
     <g id="v01_01">
      <line  x1="132" x2="262" y1="120" y2="164"/>
      <path class="lecture" d="m116,80l32,0c-16,20 16,20 0,40l-32,0c16,-20 -16,-20 0,-40z" />
     </g>
     <g id="v01_02">
      <line  x1="346" x2="262" y1="100" y2="164"/>
      <circle class="video" cx="346" cy="100"  r="16"/>
     </g>
     <g id="v02_01">
      <line  x1="262" x2="262" y1="164" y2="228"/>
      <circle class="video" cx="262" cy="164"  r="16"/>
     </g>
     <g id="v02_02">
      <line  x1="262" x2="262" y1="228" y2="292"/>
      <circle class="video" cx="262" cy="228"  r="16"/>
     </g>
     <g id="v02_03">
      <line  x1="262" x2="262" y1="292" y2="356"/>
      <line class="optional"  x1="262" x2="585" y1="327" y2="327"/>
      <circle class="video" cx="262" cy="292"  r="16"/>
     </g>
     <g id="v02_04">
      <line  x1="262" x2="262" y1="356" y2="420"/>
      <line class="optional"  x1="262" x2="585" y1="392" y2="392"/>
      <circle class="video" cx="262" cy="356"  r="16"/>
     </g>
     <g id="v02_05">
      <line  x1="262" x2="262" y1="440" y2="500"/>
      <rect class="exercise" height="32"  width="32" x="246" y="410"/>
     </g>
     <g id="v03_01">
      <line  x1="262" x2="262" y1="500" y2="564"/>
      <line class="optional"  x1="262" x2="585" y1="500" y2="500"/>
      <circle class="video" cx="262" cy="500"  r="16"/>
     </g>
     <g id="v03_02">
       <line  x1="262" x2="262" y1="564" y2="690"/>
       <line class="optional"  x1="262" x2="584" y1="594" y2="594"/>
       <circle class="video" cx="262" cy="564"  r="16"/>
     </g>
      <g id="v03_04">
        <polyline points="340,646 272,646 272, 702"></polyline>
        <circle class="video" cx="340" cy="646"  r="16"/>
      </g>
      
     <g id="v03_03">
      <line  x1="262" x2="262" y1="702" y2="778"/>
      <rect class="exercise" height="32"  width="32" x="246" y="682"/>
     </g>
     <g id="v04_01">
      <line  x1="262" x2="116" y1="778" y2="842"/>
      <line  x1="262" x2="346" y1="778" y2="872"/>
      <circle class="video" cx="262" cy="778"  r="16"/>
     </g>
     <g id="v04_02">
      <line  x1="116.5" x2="86" y1="844.5" y2="939.50001"/>
      <line  x1="116" x2="262" y1="842" y2="936"/>
      <circle class="video" cx="116" cy="842"  r="16"/>
     </g>
     <g id="v04_03">
      <line  x1="346" x2="262" y1="872" y2="936"/>
      <circle class="video" cx="346" cy="872"  r="16"/>
     </g>
     <g id="v04_04">
      <line  x1="262" x2="326" y1="934" y2="998"/>
      <line  x1="262" x2="262" y1="934" y2="1052"/>
      <circle class="video" cx="262" cy="934"  r="16"/>
     </g>
     <g id="v04_05">
      <circle class="video" cx="326" cy="1000"  r="16"/>
     </g>
     <g id="v04_06">
      <line class="dashed"  x1="86" x2="262" y1="941" y2="1052"/>
      <circle class="video" cx="86" cy="941"  r="16"/>
     </g>
     <g id="v04_07">
      <line  x1="262" x2="262" y1="1052" y2="1144"/>
      <line   x1="262" x2="940" y1="1070" y2="1070"/>
      <path class="lecture" d="m246,1050l32,0c-16,20 16,20 0,40l-32,0c16,-20 -16,-20 0,-40z" />
      
     </g>
     <g id="v05_01">
      <line  x1="262" x2="262" y1="1144" y2="1234"/>
      <path class="lecture" d="m246,1140l32,0c-16,20 16,20 0,40l-32,0c16,-20 -16,-20 0,-40z" />
     </g>
      
      <g id="v04_08">
        <polyline points="340,1208 272,1208 272, 1234"></polyline>
        <path class="lecture" d="m330,1185l32,0c-16,20 16,20 0,40l-32,0c16,-20 -16,-20 0,-40z"/>
      </g>
      
     <g id="v05_02">
      <line  x1="262" x2="262" y1="1244" y2="1292"/>
      <rect class="exercise" height="32"  width="32" x="246" y="1234"/>
     </g>
     <g id="v05_03">
       
       <use href="#milestone" class="milestone" x="242" y="1292"/>
     </g>
     <g id="e01_01">
      <circle class="video optional" cx="585" cy="327"  r="16"/>
     </g>
     <g id="e01_02">
      <circle class="video optional" cx="585" cy="392"  r="16"/>
     </g>
     <g id="e01_03">
      <circle class="video optional" cx="585" cy="500"  r="16"/>
     </g>
     <g id="e01_04">
      <circle class="video optional" cx="585" cy="594"  r="16"/>
     </g>
   
     <g id="p00_01">
        <line  x1="940" x2="940" y1="1055" y2="1236"/>
        <rect class="exercise" height="32"  width="32" x="924" y="1052"/>
        <line x1="940" x2="980" y1="1120" y2="1120"/>
        <line x1="940" x2="900" y1="1155" y2="1155"/>  
        <line x1="940" x2="980" y1="1190" y2="1190"/>
     </g>
      
     <g id="p01_01">
      <rect class="exercise" height="22"  width="22" x="966" y="1110"/>
     </g>
      
      <g id="p01_02" data-textmargin="22">
      <rect class="exercise" height="22"  width="22" x="892" y="1145"/>  
      </g>
     
     <g id="p01_03">
      <rect class="exercise" height="22"  width="22" x="966" y="1180"/>
     </g>
     
     <g id="v06_00">
      <line x1="262" x2="262" y1="1450" y2="1524" />
      <line x1="262" x2="320" y1="1450" y2="1490" />
      <path class="lecture" d="m246,1430l32,0c-16,20 16,20 0,40l-32,0c16,-20 -16,-20 0,-40z"/>
     </g>

     <g id="v06_01">
      
      <circle class="video" cx="320" cy="1490" r="16"  />   
     </g>

     <g id="v06_02">
     <line x1="262" x2="262" y1="1524" y2="1588" />
      <circle class="video" cx="262" cy="1524" r="16"  />   
     </g>

     <g id="v06_03">
      <line x1="262" x2="130" y1="1588" y2="1652" />
      <line x1="262" x2="394" y1="1588" y2="1652" />
      <circle class="video" cx="262" cy="1588" r="16"  />   
     </g>

     <g id="v06_04">
      <line x2="262" x1="130" y2="1716" y1="1652" />
      
      <circle class="video" cx="130" cy="1652" r="16"  />   
     </g>

     <g id="v06_05">
     <line x2="262" x1="394" y2="1716" y1="1652" />
      <circle class="video" cx="394" cy="1652" r="16"  />   
     </g>

     <g id="v06_06">
      <line x1="262" x2="262" y1="1716" y2="1780" />
      <circle class="video" cx="262" cy="1716" r="16"  />   
     </g>

    <g id="v06_13">
      <line x1="262" x2="262" y1="1780" y2="1844" />
      
      <rect class="exercise" width="32 " height="32" x="246" y="1764" />
     </g>
     <g id="v06_07">
      <line x1="262" x2="262" y1="1844" y2="2044" />
      <line x1="262" x2="310" y1="1894" y2="1894" />
      <line x1="262" x2="310" y1="1944" y2="1944" />
      <line x1="262" x2="340" y1="1994" y2="1994" />
      <line x1="262" x2="340" y1="2044" y2="2044" />
      <circle class="video" cx="262" cy="1844" r="16"  />     
     </g>

     <g id="v06_08">
      <circle class="video" cx="310" cy="1894" r="16"  />   
     </g>

     <g id="v06_09">
      <line x1="310" x2="310" y1="1944" y2="2140" />
      <circle class="video" cx="310" cy="1944" r="16"  />   
     </g>

      <g id="v06_11">
      <circle class="video" cx="340" cy="1994" r="16"  />   
     </g>

     <g id="v06_10">
      <line class="optional" x1="340" x2="380" y1="2044" y2="2096" />
      <circle class="video" cx="340" cy="2044" r="16"  />   
     </g>

     
     

     <g id="v06_12">
      <circle class="video" cx="380" cy="2096" r="16"  />   
     </g>

    <g id="v06_14">
    <line x1="310" x2="310" y1="2140" y2="2220" />
      
      

      <rect class="exercise" width="32 " height="32" x="296" y="2140" />
     </g>
      <g id="v06_15">
       
       <use href="#milestone" class="milestone" x="292" y="2220"/>
     </g>

     <g id="branching">
      <text x="350" y="2370">[decisions]</text>
      <polyline points="330 2380, 540 2380, 540, 2440"/>
      <text x="210" y="2370">[random]</text>
      <polyline points="290 2380, 100 2380, 100, 2440"/>
      <polygon points="310 2360, 330 2380, 310 2400, 290 2380" />
     </g>

     <g id="v07_01" class="">
      <line x1="100" x2="60" y1="2450" y2="2520" />
      <line x1="100" x2="160" y1="2450" y2="2570" />
       <circle class="video" cx="100" cy="2450" r="16" />
     </g>
     <g id="v07_02" class="">
        <line x1="60" x2="100" y1="2520" y2="2640" />
        <circle class="video" cx="60" cy="2520" r="16" />
     </g>
     <g id="v07_03" class="">
        <line x1="160" x2="100" y1="2570" y2="2640" />
        <circle class="video" cx="160" cy="2570" r="16" />
     </g>

     <g id="v07_04" class="">
        <line x1="100" x2="100" y1="2640" y2="2840" />
        <circle class="video" cx="100" cy="2640" r="16" />
     </g>

      <g id="v07_05" class="">
       <polyline points="100 2840, 100 2920, 300 2920, 300 2940" />
        <rect class="exercise" width="32" height="32" x="86" y="2840"/>
     </g>


     <g id="v08_00" class="">
      <line x1="540" x2="540" y1="2460" y2="2530" />
          <path class="lecture" d="m525,2430l32,0c-16,20 16,20 0,40l-32,0c16,-20 -16,-20 0,-40z" /> 
     </g>

<g id="v08_01" class="">
<line x1="540" x2="540" y1="2530" y2="2600" />
  <circle class="video" cx="540" cy="2530" r="16" />
</g>

<g id="v08_02" class="">
<line x1="540" x2="540" y1="2600" y2="2700" />
<line x1="540" x2="590" y1="2650" y2="2650" />
  <circle class="video" cx="540" cy="2600" r="16" />
</g>

<g id="v08_03" class="">
  <circle class="video" cx="590" cy="2650" r="16" />
</g>

<g id="v08_04" class="">
  <line x1=" 540" x2="540" y1="2700" y2="2850" />
  <circle class="video" cx="540" cy="2700" r="16" />
</g>

<g id="v08_05" class="">
 <polyline points="540 2860, 540 2920, 318 2920 318 2940" />
 <rect class="exercise" width="32" height="32" x="525" y="2840"/>

</g>

       <g id="v08_06">
       <use href="#milestone" class="milestone" x="288" y="2940"/>
     </g>

     <!-- Screen 4 -->

     <g id="v09_01">
      <line x1="310" x2="290" y1="3100" y2="3170" />
      <line class="optional" x1="310" x2="585" y1="3100" y2="3100" />
      <circle class="video" cx="310" cy="3100" r="16"/>
     </g>
     <g id="v09_02">
      <line x1="290" x2="320" y1="3170" y2="3230" />
      <line class="optional" x1="290" x2="585" y1="3170" y2="3170" />
      <circle class="video" cx="290" cy="3170" r="16"/>
     </g>
     <g id="v09_03">
      <line x1="320" x2="340" y1="3230" y2="3280" />

      <circle class="video" cx="320" cy="3230" r="16"/>
     </g>

     <g id="v09_04">
      <line class="dashed" x1="340" x2="360" y1="3280" y2="3380" />
      <circle class="video" cx="340" cy="3280" r="16"/>
     </g>

     <g id="e02_01">
      <path class="lecture optional" d="m570,3080l32,0c-16,20 16,20 0,40l-32,0c16,-20 -16,-20 0,-40z" />
     </g>

     <g id="e02_02">
      <line x1="585" x2="585" y1="3170" y2="3310" />
      <path class="lecture optional" d="m570,3150l32,0c-16,20 16,20 0,40l-32,0c16,-20 -16,-20 0,-40z" />
     </g>

    <g id="e02_04">
    <line class="dashed" x1="585" x2= "550" y1="3310" y2="3380" />
      <path class="lecture optional" d="m570,3290l32,0c-16,20 16,20 0,40l-32,0c16,-20 -16,-20 0,-40z" />
     </g>

    </g>
   </g>
   <g class="layer" id="info">
    <line class="dashed" fill="none"  stroke="#000000" stroke-width="5" x1="50" x2="475" y1="463.5" y2="463.5"/>
    <line class="dashed" fill="none"  stroke="#000000" stroke-width="5" x1="50" x2="475" y1="738" y2="738"/>
    <line class="dashed" fill="none"  stroke="#000000" stroke-width="5" x1="50" x2="475" y1="1120" y2="1120"/>
    <text fill="#000000" font-family="Serif" font-size="32" font-weight="normal"  stroke="#000000" stroke-width="0" text-anchor="middle" transform="rotate(90, 69.5, 321)" x="69.5" xml:space="preserve" y="332">css and classes</text>
    <text fill="#000000" font-family="Serif" font-size="32" font-weight="normal"  stroke="#000000" stroke-width="0" text-anchor="middle" transform="rotate(90, 69.5, 565.5)" x="69.5" xml:space="preserve" y="576.5">functions</text>
    <text fill="#000000" font-family="Serif" font-size="32" font-weight="normal"  stroke="#000000" stroke-width="0" text-anchor="middle" transform="rotate(90 69.5 858)" x="69.5" xml:space="preserve" y="869">events</text>
    <text fill="#000000" font-family="Serif" font-size="32" font-weight="normal"  stroke="#000000" stroke-width="0" text-anchor="middle" transform="rotate(90 69.5 1280)" x="69.5" xml:space="preserve" y="1290">basic interactivity</text>
   </g>
  
  
  
 </g>
</svg>