<svg
      xmlns="http://www.w3.org/2000/svg"
      width="1920"
      height="1080"
      viewBox="0 0 1920 1080"
    >
      <defs>
        <style>
    

        
        </style>
      </defs>
      <g id="screen1">
        <g id="v00_01">
          <line x1="166" y1="36" x2="36" y2="80"></line>
          <line x1="166" y1="36" x2="250" y2="100"></line>
          <path class="lecture" d="M150,20h32c-16 20, 16 20, 0 40h-32c16 -20, -16 -20, 0 -40"/>
        </g>

        <g id="v01_01">
          <line x1="36" y1="120" x2="166" y2="164"></line>
          <path class="lecture" d="M20,80h32c-16 20, 16 20, 0 40h-32c16 -20, -16 -20, 0 -40"/>
        </g>

        <g id="v01_02">
          <line x1="250" y1="100" x2="166" y2="164"></line>
          <circle class="video" cx="250" cy="100" r="16" />
        </g>

        <g id="v02_01">
          <line x1="166" y1="164" x2="166" y2="228"></line>
          <circle class="video" cx="166" cy="164" r="16" />
        </g>
        <g id="v02_02">
          <line x1="166" y1="228" x2="166" y2="292"></line>
          <circle class="video" cx="166" cy="228" r="16" />
        </g>
        <g id="v02_03">
          <line x1="166" y1="292" x2="166" y2="356"></line>
          <circle class="video" cx="166" cy="292" r="16" />
        </g>
        <g id="v02_04">
          <line x1="166" y1="356" x2="166" y2="420"></line>
          <circle class="video" cx="166" cy="356" r="16" />
        </g>
        <g id="v02_05">
          <line x1="166" y1="440" x2="166" y2="500"></line>
          <rect class="exercise" x="150" y="410" width="32" height="32" />
        </g>

        <g id="v03_01">
          <line x1="166" y1="500" x2="166" y2="564"></line>
          <circle class="video" cx="166" cy="500" r="16"></circle>
        </g>
        <g id="v03_02">
          <line x1="166" y1="564" x2="166" y2="620"></line>
          <circle class="video" cx="166" cy="564" r="16"></circle>
        </g>
        <g id="v03_03">
          <line x1="166" y1="640" x2="166" y2="716"></line>
          <rect class="exercise" x="150" y="620" width="32" height="32" />
        </g>

        <g id="v04_01">
          <line x1="166" y1="716" x2="20" y2="780"></line>
          <line x1="166" y1="716" x2="250" y2="810"></line>
          
          <circle class="video" cx="166" cy="716" r="16"></circle>
        </g>
        <g id="v04_02">
          <line x1="20" y1="780" x2="166" y2="874"></line>
          
          <circle class="video" cx="20" cy="780" r="16"></circle>
        </g>
        <g id="v04_03">
          <line x1="250" y1="810" x2="166" y2="874"></line>
          <circle class="video" cx="250" cy="810" r="16"></circle>
        </g>
        <g id="v04_04">
          <line x1="166" y1="874" x2="210" y2="938"></line>
          <circle class="video" cx="166" cy="874" r="16"></circle>
        </g>
        <g id="v04_05">
          <circle class="video" cx="210" cy="938" r="16"></circle>
        </g>

      </g>
    </svg>